<svg width="59" height="59" viewBox="0 0 59 59" fill="none" xmlns="http://www.w3.org/2000/svg">
<path d="M27.12 15H31.64L30.88 34.16H27.84L27.12 15ZM29.4 43.24C28.6533 43.24 28.0267 43 27.52 42.52C27.0133 42.0133 26.76 41.4 26.76 40.68C26.76 39.96 27.0133 39.36 27.52 38.88C28.0267 38.3733 28.6533 38.12 29.4 38.12C30.1467 38.12 30.76 38.3733 31.24 38.88C31.72 39.36 31.96 39.96 31.96 40.68C31.96 41.4 31.7067 42.0133 31.2 42.52C30.72 43 30.12 43.24 29.4 43.24Z" fill="#D33D1C"/>
<circle cx="29.5" cy="29.5" r="28.5" stroke="#D33D1C" stroke-width="2"/>
</svg>
